Patient4_TMGait_0pt4_03_left_18_GRF.mot
version=1
nRows=58
nColumns=19
inDegrees=no
endheader
time	F1x	F1y	F1z	M1x	M1y	M1z	F2x	F2y	F2z	M2x	M2y	M2z	EC1x	EC1y	EC1z	EC2x	EC2y	EC2z
23.46	-3.6214	9.2929	4.8787	-2.2769	-4.2412	11.0397	-24.1066	732.7262	-53.2415	282.1187	71.3852	811.2679	-0.0592	0.0182	-0.0073	-0.0462	0.0165	0.9585
23.4734	-2.4075	6.4247	3.3954	-1.6078	-2.9872	7.6789	-21.2407	732.9474	-55.312	281.8592	71.6478	807.4256	-0.0592	0.0182	-0.0073	-0.0462	0.0165	0.9585
23.4869	-1.4224	4.0389	2.1251	-1.0508	-1.9305	4.8796	-18.0893	732.4697	-56.7325	281.4207	71.1429	802.465	-0.0592	0.0182	-0.0073	-0.0462	0.0165	0.9585
23.5003	-0.70861	2.2711	1.1454	-0.64014	-1.1333	2.7988	-14.8709	732.0971	-57.4955	281.1099	69.9901	797.4464	-0.0592	0.0182	-0.0073	-0.0462	0.0165	0.9585
23.5137	-0.24475	1.0891	0.46579	-0.37	-0.59633	1.3979	-11.7527	732.7721	-57.7645	281.2661	68.4384	793.518	-0.0592	0.0182	-0.0073	-0.0462	0.0165	0.9585
23.5271	-0.00081876	0.39632	0.044993	-0.2155	-0.28507	0.57159	-8.8283	735.1708	-57.7475	282.1208	66.735	791.4895	-0.0592	0.0182	-0.0073	-0.0462	0.0165	0.9585
23.5406	0.077286	0.038542	-0.16857	-0.13545	-0.15403	0.13235	-6.1291	739.4899	-57.6346	283.7283	65.0691	791.6051	-0.0592	0.0182	-0.0073	-0.0462	0.0165	0.9585
23.554	0.036874	-0.14455	-0.23209	-0.085078	-0.15696	-0.10942	-3.6241	745.4556	-57.5487	285.9658	63.5327	793.5728	-0.0592	0.0182	-0.0073	-0.0462	0.0165	0.9585
23.5674	-0.083643	-0.31243	-0.19353	-0.019547	-0.25443	-0.33896	-1.258	752.3811	-57.5569	288.5532	62.1571	796.6723	-0.0592	0.0182	-0.0073	-0.0462	0.0165	0.9585
23.5809	-0.24457	-0.62731	-0.08924	0.10555	-0.41507	-0.74787	1.0005	759.2739	-57.6667	291.0991	60.9314	799.8658	-0.0592	0.0182	-0.0073	-0.0462	0.0165	0.9585
23.5943	-0.42376	-1.2192	0.045734	0.32759	-0.60725	-1.4746	3.1636	765.08	-57.8557	293.1884	59.8294	802.0687	-0.0592	0.0182	-0.0073	-0.0462	0.0165	0.9585
23.6077	-0.58211	-2.1978	0.1888	0.68193	-0.79752	-2.6527	5.2532	768.9119	-58.0756	294.469	58.8087	802.3784	-0.0592	0.0182	-0.0073	-0.0462	0.0165	0.9585
23.6211	-0.69086	-3.6112	0.3081	1.1853	-0.94035	-4.3369	7.2793	770.1923	-58.2913	294.7126	57.8402	800.2274	-0.0592	0.0182	-0.0073	-0.0462	0.0165	0.9585
23.6346	-0.69175	-5.4212	0.3776	1.8244	-0.98228	-6.4932	9.2545	768.7294	-58.4699	293.8412	56.8921	795.4441	-0.0592	0.0182	-0.0073	-0.0462	0.0165	0.9585
23.648	-0.4983	-7.4515	0.35858	2.5362	-0.84892	-8.921	11.1846	764.6767	-58.6156	291.9083	55.9707	788.2057	-0.0592	0.0182	-0.0073	-0.0462	0.0165	0.9585
23.6614	-0.014653	-9.312	0.19526	3.1816	-0.43961	-11.1561	13.0743	758.4578	-58.7654	289.0723	55.1133	778.9551	-0.0592	0.0182	-0.0073	-0.0462	0.0165	0.9585
23.6749	0.89494	-10.3311	-0.17372	3.5202	0.36584	-12.4075	14.9364	750.7065	-58.9867	285.5752	54.3841	768.34	-0.0592	0.0182	-0.0073	-0.0462	0.0165	0.9585
23.6883	2.3416	-9.4884	-0.82443	3.1905	1.6945	-11.4483	16.7866	742.1877	-59.3327	281.7155	53.8308	757.1412	-0.0592	0.0182	-0.0073	-0.0462	0.0165	0.9585
23.7017	4.4077	-5.4011	-1.8254	1.7047	3.6488	-6.6292	18.6448	733.6407	-59.8216	277.7911	53.461	746.111	-0.0592	0.0182	-0.0073	-0.0462	0.0165	0.9585
23.7151	7.0672	3.6626	-3.2155	-1.5439	6.2586	4.1168	20.5187	725.6124	-60.4117	274.0328	53.2256	735.8157	-0.0592	0.0182	-0.0073	-0.0462	0.0165	0.9585
23.7286	10.1289	19.595	-4.9546	-7.2161	9.4037	23.0657	22.3973	718.2635	-61.0193	270.5289	53.0381	726.4333	-0.0592	0.0182	-0.0073	-0.0462	0.0165	0.9585
23.742	13.1455	44.098	-6.8877	-15.901	12.7367	52.2859	24.223	711.2646	-61.5232	267.1777	52.7887	717.6603	-0.0592	0.0182	-0.0073	-0.0462	0.0165	0.9585
23.7554	15.2774	78.1072	-8.6776	-27.9062	15.5568	92.9508	25.889	703.7356	-61.7629	263.6689	52.3506	708.6433	-0.0592	0.0182	-0.0073	-0.0462	0.0165	0.9585
23.7689	15.2747	120.9253	-9.7437	-42.9524	16.7286	144.305	27.2497	694.3408	-61.539	259.5241	51.5773	698.0669	-0.0592	0.0182	-0.0073	-0.0462	0.0165	0.9585
23.7823	11.9478	169.6667	-9.3601	-59.9767	14.9801	203.0009	28.1839	681.5665	-60.6479	254.197	50.3126	684.4269	-0.0592	0.0182	-0.0073	-0.0462	0.0165	0.9585
23.7957	5.5828	219.4717	-6.8219	-77.2243	9.5922	263.2116	28.6506	664.0214	-58.9428	247.1847	48.4347	666.3067	-0.0592	0.0182	-0.0073	-0.0462	0.0165	0.9585
23.8091	-1.9902	264.5913	-2.0068	-92.6888	1.1119	317.7938	28.6613	640.692	-56.3933	238.122	45.9142	642.638	-0.0592	0.0182	-0.0073	-0.0462	0.0165	0.9585
23.8226	-9.0158	301.0974	4.2042	-105.053	-8.7692	361.7073	28.3157	611.1439	-53.0968	226.8497	42.8141	612.9037	-0.0592	0.0182	-0.0073	-0.0462	0.0165	0.9585
23.836	-14.7009	328.7891	10.8848	-114.3078	-18.6367	394.532	27.7533	575.6209	-49.2569	213.4476	39.279	577.2676	-0.0592	0.0182	-0.0073	-0.0462	0.0165	0.9585
23.8494	-18.9792	350.6767	17.2074	-121.5571	-27.4939	419.8628	27.0859	534.9313	-45.108	198.2002	35.4806	536.4767	-0.0592	0.0182	-0.0073	-0.0462	0.0165	0.9585
23.8629	-22.0772	370.6265	22.5991	-128.2017	-34.7546	442.3799	26.3763	490.2437	-40.7989	181.5266	31.5294	491.6664	-0.0592	0.0182	-0.0073	-0.0462	0.0165	0.9585
23.8763	-24.202	391.64	26.7435	-135.3276	-40.1439	465.6896	25.6062	442.8965	-36.3657	163.9112	27.4588	444.1753	-0.0592	0.0182	-0.0073	-0.0462	0.0165	0.9585
23.8897	-25.4295	415.3494	29.6643	-143.5154	-43.7469	491.7115	24.6918	394.192	-31.8004	145.8307	23.2875	395.3169	-0.0592	0.0182	-0.0073	-0.0462	0.0165	0.9585
23.9031	-25.8142	442.3205	31.6524	-152.9448	-45.9508	521.1196	23.4844	345.37	-27.1486	127.7369	19.1106	346.3622	-0.0592	0.0182	-0.0073	-0.0462	0.0165	0.9585
23.9166	-25.417	472.4501	33.1726	-163.5445	-47.3417	553.8284	21.8414	297.6364	-22.5581	110.0645	15.1248	298.5444	-0.0592	0.0182	-0.0073	-0.0462	0.0165	0.9585
23.93	-24.379	505.2463	34.7319	-175.101	-48.5662	589.2851	19.6646	252.1648	-18.2373	93.2327	11.5744	253.0473	-0.0592	0.0182	-0.0073	-0.0462	0.0165	0.9585
23.9434	-22.9499	539.9438	36.7339	-187.3152	-50.1694	626.6202	16.9449	210.0129	-14.3852	77.6218	8.6649	210.9222	-0.0592	0.0182	-0.0073	-0.0462	0.0165	0.9585
23.9569	-21.4104	575.6556	39.3728	-199.8636	-52.4629	664.8352	13.803	172.0313	-11.1188	63.5428	6.4789	172.9931	-0.0592	0.0182	-0.0073	-0.0462	0.0165	0.9585
23.9703	-19.986	611.5627	42.5685	-212.4577	-55.4258	703.011	10.4591	138.7741	-8.4519	51.2007	4.9624	139.7808	-0.0592	0.0182	-0.0073	-0.0462	0.0165	0.9585
23.9837	-18.7886	646.8452	46.0256	-224.8189	-58.7537	740.228	7.1762	110.3771	-6.3259	40.6513	3.9708	111.3892	-0.0592	0.0182	-0.0073	-0.0462	0.0165	0.9585
23.9971	-17.8749	680.5056	49.3892	-236.608	-62.0549	775.3898	4.1615	86.5815	-4.6505	31.8083	3.3412	87.5425	-0.0592	0.0182	-0.0073	-0.0462	0.0165	0.9585
24.0106	-17.281	711.3696	52.4059	-247.4165	-65.0491	807.2189	1.5455	66.8618	-3.3334	24.4863	2.935	67.7232	-0.0592	0.0182	-0.0073	-0.0462	0.0165	0.9585
24.024	-17.0232	738.328	54.9583	-256.8505	-67.6016	834.5273	-0.61318	50.5886	-2.2977	18.4588	2.6509	51.3212	-0.0592	0.0182	-0.0073	-0.0462	0.0165	0.9585
24.0374	-17.0529	760.5833	57.0271	-264.6211	-69.6684	856.4781	-2.2859	37.1669	-1.4906	13.5071	2.421	37.7647	-0.0592	0.0182	-0.0073	-0.0462	0.0165	0.9585
24.0509	-17.2595	777.7256	58.629	-270.5769	-71.2296	872.6613	-3.4022	26.1352	-0.87685	9.457	2.1883	26.607	-0.0592	0.0182	-0.0073	-0.0462	0.0165	0.9585
24.0643	-17.478	789.6867	59.7928	-274.6892	-72.2684	883.0364	-3.9007	17.1834	-0.43688	6.1886	1.9105	17.552	-0.0592	0.0182	-0.0073	-0.0462	0.0165	0.9585
24.0777	-17.5342	796.6334	60.5249	-277.0171	-72.7477	887.8138	-3.7919	10.1365	-0.15407	3.6329	1.5706	10.4279	-0.0592	0.0182	-0.0073	-0.0462	0.0165	0.9585
24.0911	-17.3116	798.904	60.8383	-277.6799	-72.6568	887.4039	-3.2391	4.9466	-0.0072959	1.7628	1.2085	5.1846	-0.0592	0.0182	-0.0073	-0.0462	0.0165	0.9585
24.1046	-16.7427	796.9654	60.7584	-276.839	-72.017	882.3551	-2.5235	1.4865	0.048303	0.52321	0.88085	1.6962	-0.0592	0.0182	-0.0073	-0.0462	0.0165	0.9585
24.118	-15.828	791.4375	60.3619	-274.706	-70.9201	873.3895	-1.8205	-0.56895	0.039022	-0.20614	0.6239	-0.37016	-0.0592	0.0182	-0.0073	-0.0462	0.0165	0.9585
24.1314	-14.6226	783.1517	59.7285	-271.5645	-69.4796	861.4492	-1.2239	-1.5747	0.0061647	-0.55781	0.4333	-1.3726	-0.0592	0.0182	-0.0073	-0.0462	0.0165	0.9585
24.1449	-13.2044	773.0674	58.9681	-267.7452	-67.8452	847.6064	-0.75686	-1.8657	-0.037939	-0.65508	0.30874	-1.6564	-0.0592	0.0182	-0.0073	-0.0462	0.0165	0.9585
24.1583	-11.6508	762.1898	58.1726	-263.5973	-66.1472	832.9681	-0.42499	-1.7265	-0.075818	-0.59955	0.23914	-1.5077	-0.0592	0.0182	-0.0073	-0.0462	0.0165	0.9585
24.1717	-10.0238	751.4774	57.4203	-259.4587	-64.4894	818.5698	-0.22144	-1.3668	-0.1067	-0.46583	0.21993	-1.1339	-0.0592	0.0182	-0.0073	-0.0462	0.0165	0.9585
24.1851	-8.373	741.7927	56.7438	-255.6406	-62.9202	805.3354	-0.10932	-0.92949	-0.12619	-0.30423	0.22839	-0.68929	-0.0592	0.0182	-0.0073	-0.0462	0.0165	0.9585
24.1986	-6.7313	733.8669	56.1608	-252.4093	-61.4578	794.0376	-0.074003	-0.4977	-0.13997	-0.14534	0.25408	-0.25757	-0.0592	0.0182	-0.0073	-0.0462	0.0165	0.9585
24.212	-5.1122	728.2615	55.6688	-249.9701	-60.0939	785.2534	-0.091568	-0.12846	-0.14416	-0.0083257	0.27986	0.10104	-0.0592	0.0182	-0.0073	-0.0462	0.0165	0.9585
24.2254	-3.5157	725.3396	55.2523	-248.4575	-58.8023	779.3348	-0.14823	0.15163	-0.14926	0.097585	0.30997	0.36392	-0.0592	0.0182	-0.0073	-0.0462	0.0165	0.9585
